<svg xmlns="http://www.w3.org/2000/svg" xmlns:xlink="http://www.w3.org/1999/xlink" width="79.611" height="96.516" viewBox="0 0 79.611 96.516">
  <defs>
    <clipPath id="clip-path">
      <rect id="Retângulo_641" data-name="Retângulo 641" width="79.611" height="96.516" fill="none" stroke="#fff" stroke-width="3"/>
    </clipPath>
  </defs>
  <g id="Grupo_1417" data-name="Grupo 1417" clip-path="url(#clip-path)">
    <path id="Caminho_192" data-name="Caminho 192" d="M90.6,20.353a25.856,25.856,0,0,1,14.005,9.879" transform="translate(-38.342 -0.862)" fill="none" stroke="#fff" stroke-linecap="round" stroke-linejoin="round" stroke-width="3"/>
    <path id="Caminho_193" data-name="Caminho 193" d="M85.165,51.9a8.325,8.325,0,1,0-11.6,2A8.325,8.325,0,0,0,85.165,51.9Z" transform="translate(-27.858 -10.252)" fill="none" stroke="#fff" stroke-linecap="round" stroke-linejoin="round" stroke-width="3"/>
    <path id="Caminho_194" data-name="Caminho 194" d="M20.993,107.623c8.9,1.849,14.29,5.569,19.277,13.6" transform="translate(-2.855 -45.353)" fill="none" stroke="#fff" stroke-linecap="round" stroke-linejoin="round" stroke-width="3"/>
    <line id="Linha_18" data-name="Linha 18" x1="4.824" y2="10.405" transform="translate(13.091 67.698)" fill="none" stroke="#fff" stroke-linecap="round" stroke-linejoin="round" stroke-width="3"/>
    <line id="Linha_19" data-name="Linha 19" x1="8.183" y2="8.035" transform="translate(24.194 77.898)" fill="none" stroke="#fff" stroke-linecap="round" stroke-linejoin="round" stroke-width="3"/>
    <line id="Linha_20" data-name="Linha 20" x1="5.273" y2="7.477" transform="translate(20.829 71.441)" fill="none" stroke="#fff" stroke-linecap="round" stroke-linejoin="round" stroke-width="3"/>
    <path id="Caminho_195" data-name="Caminho 195" d="M48.587,62.65C67.808,46.12,81.175,30.66,74.669,2.178,45.654,5.605,35.576,23.385,26.454,47.038" transform="translate(-5.639 8.404)" fill="none" stroke="#fff" stroke-linecap="round" stroke-linejoin="round" stroke-width="3"/>
    <path id="Caminho_196" data-name="Caminho 196" d="M53.182,70.555a36.775,36.775,0,0,1-11.84,27.2Q30.513,70.424,2.178,70.135A36.776,36.776,0,0,1,23.833,49.853" transform="translate(6.738 -15.901)" fill="none" stroke="#fff" stroke-linecap="round" stroke-linejoin="round" stroke-width="3"/>
  </g>
</svg>
