<svg xmlns="http://www.w3.org/2000/svg" xmlns:xlink="http://www.w3.org/1999/xlink" width="95.762" height="95.226" viewBox="0 0 95.762 95.226">
  <defs>
    <clipPath id="clip-path">
      <rect id="Retângulo_639" data-name="Retângulo 639" width="95.762" height="95.226" fill="none" stroke="#fff" stroke-width="3"/>
    </clipPath>
  </defs>
  <g id="Grupo_1413" data-name="Grupo 1413" clip-path="url(#clip-path)">
    <path id="Caminho_180" data-name="Caminho 180" d="M25.616,10.124c0-4.388-3.253-7.946-7.267-7.946s-7.267,3.558-7.267,7.946,3.253,10.247,7.267,10.247S25.616,14.514,25.616,10.124Z" transform="translate(1.884 6.209)" fill="none" stroke="#fff" stroke-linecap="round" stroke-linejoin="round" stroke-width="3"/>
    <line id="Linha_9" data-name="Linha 9" x1="5.974" y2="2.83" transform="translate(8.387 31.219)" fill="none" stroke="#fff" stroke-linecap="round" stroke-linejoin="round" stroke-width="3"/>
    <line id="Linha_10" data-name="Linha 10" x2="5.974" y2="2.83" transform="translate(26.107 31.219)" fill="none" stroke="#fff" stroke-linecap="round" stroke-linejoin="round" stroke-width="3"/>
    <path id="Caminho_181" data-name="Caminho 181" d="M118.6,10.124c0-4.388,3.253-7.946,7.267-7.946s7.267,3.558,7.267,7.946-3.253,10.247-7.267,10.247S118.6,14.514,118.6,10.124Z" transform="translate(-50.336 6.209)" fill="none" stroke="#fff" stroke-linecap="round" stroke-linejoin="round" stroke-width="3"/>
    <line id="Linha_11" data-name="Linha 11" x2="5.974" y2="2.83" transform="translate(81.402 31.219)" fill="none" stroke="#fff" stroke-linecap="round" stroke-linejoin="round" stroke-width="3"/>
    <line id="Linha_12" data-name="Linha 12" x1="5.974" y2="2.83" transform="translate(63.682 31.219)" fill="none" stroke="#fff" stroke-linecap="round" stroke-linejoin="round" stroke-width="3"/>
    <path id="Caminho_182" data-name="Caminho 182" d="M25.616,112.766c0-4.389-3.253-7.946-7.267-7.946s-7.267,3.558-7.267,7.946,3.253,10.247,7.267,10.247S25.616,117.156,25.616,112.766Z" transform="translate(1.884 -43.644)" fill="none" stroke="#fff" stroke-linecap="round" stroke-linejoin="round" stroke-width="3"/>
    <line id="Linha_13" data-name="Linha 13" x1="5.974" y2="2.83" transform="translate(8.387 84.009)" fill="none" stroke="#fff" stroke-linecap="round" stroke-linejoin="round" stroke-width="3"/>
    <line id="Linha_14" data-name="Linha 14" x2="5.974" y2="2.83" transform="translate(26.107 84.009)" fill="none" stroke="#fff" stroke-linecap="round" stroke-linejoin="round" stroke-width="3"/>
    <path id="Caminho_183" data-name="Caminho 183" d="M118.6,112.766c0-4.389,3.253-7.946,7.267-7.946s7.267,3.558,7.267,7.946-3.253,10.247-7.267,10.247S118.6,117.156,118.6,112.766Z" transform="translate(-50.336 -43.644)" fill="none" stroke="#fff" stroke-linecap="round" stroke-linejoin="round" stroke-width="3"/>
    <line id="Linha_15" data-name="Linha 15" x2="5.974" y2="2.83" transform="translate(81.402 84.009)" fill="none" stroke="#fff" stroke-linecap="round" stroke-linejoin="round" stroke-width="3"/>
    <line id="Linha_16" data-name="Linha 16" x1="5.974" y2="2.83" transform="translate(63.682 84.009)" fill="none" stroke="#fff" stroke-linecap="round" stroke-linejoin="round" stroke-width="3"/>
    <path id="Caminho_184" data-name="Caminho 184" d="M55.846,60.293,30.931,69.066l24.915,8.772,24.915-8.772Z" transform="translate(-7.756 -22.017)" fill="none" stroke="#fff" stroke-linecap="round" stroke-linejoin="round" stroke-width="3"/>
    <path id="Caminho_185" data-name="Caminho 185" d="M52.966,95.865v6.7a36.617,36.617,0,0,0,27.164,0v-6.7" transform="translate(-18.459 -39.295)" fill="none" stroke="#fff" stroke-linecap="round" stroke-linejoin="round" stroke-width="3"/>
  </g>
</svg>
